TITLE ""
FILE "DISC1Track03.mp3" MP3
  TRACK 01 AUDIO
    TITLE "DISC1Track03_01"
    INDEX 01 00:00:00
  TRACK 02 AUDIO
    TITLE "DISC1Track03_02"
    INDEX 01 00:05:55
  TRACK 03 AUDIO
    TITLE "DISC1Track03_03"
    INDEX 01 00:06:09
  TRACK 04 AUDIO
    TITLE "DISC1Track03_04"
    INDEX 01 00:07:63
  TRACK 05 AUDIO
    TITLE "DISC1Track03_05"
    INDEX 01 00:09:58
  TRACK 06 AUDIO
    TITLE "DISC1Track03_06"
    INDEX 01 00:11:32
  TRACK 07 AUDIO
    TITLE "DISC1Track03_07"
    INDEX 01 00:11:61
  TRACK 08 AUDIO
    TITLE "DISC1Track03_08"
    INDEX 01 00:13:44
  TRACK 09 AUDIO
    TITLE "DISC1Track03_09"
    INDEX 01 00:16:13
  TRACK 10 AUDIO
    TITLE "DISC1Track03_10"
    INDEX 01 00:18:49
  TRACK 11 AUDIO
    TITLE "DISC1Track03_11"
    INDEX 01 00:19:04
  TRACK 12 AUDIO
    TITLE "DISC1Track03_12"
    INDEX 01 00:21:67
  TRACK 13 AUDIO
    TITLE "DISC1Track03_13"
    INDEX 01 00:24:30
  TRACK 14 AUDIO
    TITLE "DISC1Track03_14"
    INDEX 01 00:26:57
  TRACK 15 AUDIO
    TITLE "DISC1Track03_15"
    INDEX 01 00:27:11
  TRACK 16 AUDIO
    TITLE "DISC1Track03_16"
    INDEX 01 00:29:63
  TRACK 17 AUDIO
    TITLE "DISC1Track03_17"
    INDEX 01 00:32:10
  TRACK 18 AUDIO
    TITLE "DISC1Track03_18"
    INDEX 01 00:34:27
  TRACK 19 AUDIO
    TITLE "DISC1Track03_19"
    INDEX 01 00:34:50
  TRACK 20 AUDIO
    TITLE "DISC1Track03_20"
    INDEX 01 00:36:51
  TRACK 21 AUDIO
    TITLE "DISC1Track03_21"
    INDEX 01 00:38:58
  TRACK 22 AUDIO
    TITLE "DISC1Track03_22"
    INDEX 01 00:40:55
  TRACK 23 AUDIO
    TITLE "DISC1Track03_23"
    INDEX 01 00:41:11
  TRACK 24 AUDIO
    TITLE "DISC1Track03_24"
    INDEX 01 00:44:55
  TRACK 25 AUDIO
    TITLE "DISC1Track03_25"
    INDEX 01 00:47:69
  TRACK 26 AUDIO
    TITLE "DISC1Track03_26"
    INDEX 01 00:50:61
  TRACK 27 AUDIO
    TITLE "DISC1Track03_27"
    INDEX 01 00:51:16
  TRACK 28 AUDIO
    TITLE "DISC1Track03_28"
    INDEX 01 00:54:53
  TRACK 29 AUDIO
    TITLE "DISC1Track03_29"
    INDEX 01 00:57:65
  TRACK 30 AUDIO
    TITLE "DISC1Track03_30"
    INDEX 01 01:00:63
  TRACK 31 AUDIO
    TITLE "DISC1Track03_31"
    INDEX 01 01:01:12
  TRACK 32 AUDIO
    TITLE "DISC1Track03_32"
    INDEX 01 01:03:30
  TRACK 33 AUDIO
    TITLE "DISC1Track03_33"
    INDEX 01 01:05:45
  TRACK 34 AUDIO
    TITLE "DISC1Track03_34"
    INDEX 01 01:07:46
  TRACK 35 AUDIO
    TITLE "DISC1Track03_35"
    INDEX 01 01:08:02
  TRACK 36 AUDIO
    TITLE "DISC1Track03_36"
    INDEX 01 01:10:44
  TRACK 37 AUDIO
    TITLE "DISC1Track03_37"
    INDEX 01 01:13:01
  TRACK 38 AUDIO
    TITLE "DISC1Track03_38"
    INDEX 01 01:15:16
  TRACK 39 AUDIO
    TITLE "DISC1Track03_39"
    INDEX 01 01:15:47
  TRACK 40 AUDIO
    TITLE "DISC1Track03_40"
    INDEX 01 01:20:00
  TRACK 41 AUDIO
    TITLE "DISC1Track03_41"
    INDEX 01 01:23:06
  TRACK 42 AUDIO
    TITLE "DISC1Track03_42"
    INDEX 01 01:26:04
  TRACK 43 AUDIO
    TITLE "DISC1Track03_43"
    INDEX 01 01:26:37
  TRACK 44 AUDIO
    TITLE "DISC1Track03_44"
    INDEX 01 01:29:18
  TRACK 45 AUDIO
    TITLE "DISC1Track03_45"
    INDEX 01 01:31:33
  TRACK 46 AUDIO
    TITLE "DISC1Track03_46"
    INDEX 01 01:33:33
  TRACK 47 AUDIO
    TITLE "DISC1Track03_47"
    INDEX 01 01:33:61
  TRACK 48 AUDIO
    TITLE "DISC1Track03_48"
    INDEX 01 01:38:62
  TRACK 49 AUDIO
    TITLE "DISC1Track03_49"
    INDEX 01 01:42:09
  TRACK 50 AUDIO
    TITLE "DISC1Track03_50"
    INDEX 01 01:45:17
